<?xml version="1.0" encoding="utf-8"?>
<!-- Generator: Adobe Illustrator 15.0.0, SVG Export Plug-In  -->
<!DOCTYPE svg PUBLIC "-//W3C//DTD SVG 1.1//EN" "http://www.w3.org/Graphics/SVG/1.1/DTD/svg11.dtd" [
	<!ENTITY ns_flows "http://ns.adobe.com/Flows/1.0/">
]>
<svg version="1.1"
	 xmlns="http://www.w3.org/2000/svg" xmlns:xlink="http://www.w3.org/1999/xlink" xmlns:a="http://ns.adobe.com/AdobeSVGViewerExtensions/3.0/"
	 x="0px" y="0px" width="498px" height="107px" viewBox="-3.074 -2.002 498 107"
	 overflow="visible" enable-background="new -3.074 -2.002 498 107" xml:space="preserve">
<defs>
</defs>
<path fill="#FFFFFF" d="M65.705,67.056c7.55,7.336,17.001,11.018,28.355,11.018c11.333,0,20.786-3.682,28.344-11.018
	c6.777-6.59,10.356-14.885,11.046-24.701v-6.645c-0.69-9.824-4.25-18.12-11.008-24.701C114.92,3.673,105.459,0,94.06,0
	C82.576,0,73.097,3.644,65.602,10.953c-7.494,7.317-11.231,16.675-11.231,28.084c0,1.583,0.251,3.038,0.391,4.539
	c0.326,3.272,0.942,6.375,1.958,9.284C58.583,58.192,61.492,62.963,65.705,67.056z M82.017,26.454
	c3.029-3.524,7.046-5.266,12.043-5.266c4.977,0,8.996,1.742,12.005,5.266c2.907,3.272,4.352,7.457,4.352,12.583
	c0,5.051-1.445,9.246-4.352,12.574c-3.01,3.514-7.028,5.267-12.005,5.267c-4.997,0-9.014-1.752-12.043-5.267
	c-2.899-3.328-4.333-7.522-4.333-12.574C77.684,33.91,79.118,29.726,82.017,26.454z"/>
<path fill="#FFFFFF" d="M53.7,49.616c-0.299-1.901-0.849-3.617-1.595-5.183c0.01,0.112,0.019,0.224,0.028,0.335
	C52.823,46.279,53.382,47.882,53.7,49.616z"/>
<path fill="#FFFFFF" d="M199.296,1.389h-23.312v41.442c0,4.437-0.355,7.577-1.025,9.433c-1.175,3.198-3.579,4.801-7.215,4.801
	c-3.58,0-5.947-1.603-7.122-4.801c-0.681-1.855-1.016-4.996-1.016-9.433V1.389h-23.405v34.367v6.543v6.637
	c0,9.358,2.964,16.61,8.892,21.728c5.602,4.94,13.152,7.41,22.651,7.41c9.498,0,17.057-2.47,22.66-7.41
	c5.918-5.117,8.893-12.369,8.893-21.728V1.389z"/>
<path fill="#FFFFFF" d="M240.028,56.979h-0.363h-2.76l29.697-55.591h-63.448v19.136h27.665l-1.304,2.443l-0.16,0.315l-28.336,53.392
	h62.069V57.669c-0.111-0.233-0.261-0.448-0.373-0.69H240.028z"/>
<path fill="#FFFFFF" d="M329.762,11.008C322.239,3.673,312.761,0,301.361,0c-11.464,0-20.955,3.644-28.448,10.953
	c-7.485,7.317-11.232,16.675-11.232,28.084c0,5.546,0.933,10.606,2.741,15.192c0.392,0.979,0.95,1.856,1.417,2.787
	c1.827,3.654,4.111,7.057,7.177,10.039c7.55,7.336,17.001,11.018,28.346,11.018s20.795-3.682,28.345-11.018
	c6.813-6.608,10.394-14.941,11.065-24.813v-6.431C340.1,25.94,336.539,17.607,329.762,11.008z M313.386,51.611
	c-3.011,3.514-7.028,5.267-12.025,5.267c-4.996,0-9.004-1.752-12.024-5.267c-2.89-3.328-4.352-7.522-4.352-12.574
	c0-5.127,1.462-9.312,4.352-12.583c3.021-3.524,7.029-5.266,12.024-5.266c4.997,0,9.014,1.742,12.025,5.266
	c2.898,3.272,4.352,7.457,4.352,12.583C317.738,44.088,316.284,48.283,313.386,51.611z"/>
<path fill="#FFFFFF" d="M383.293,42.831c0,4.437-0.335,7.577-1.016,9.433c-1.176,3.198-3.58,4.801-7.216,4.801
	c-3.579,0-5.955-1.603-7.13-4.801c-0.67-1.855-1.007-4.996-1.007-9.433V1.389H343.52v34.46v6.348v6.739
	c0,9.358,2.955,16.61,8.884,21.728c5.61,4.94,13.151,7.41,22.658,7.41c9.5,0,17.049-2.47,22.66-7.41
	c5.919-5.117,8.874-12.369,8.874-21.728V1.389h-23.303V42.831z"/>
<polygon fill="#FFFFFF" points="466.717,76.675 466.717,75.026 447.562,36.903 466.717,1.697 466.717,1.389 440.609,1.389 
	436.516,9.526 435.006,12.527 433.775,14.979 433.775,12.229 433.775,8.863 433.775,1.389 410.464,1.389 410.464,76.675 
	433.775,76.675 433.775,66.841 433.775,63.328 433.775,60.587 441.632,76.675 "/>
<polygon fill="#FFFFFF" points="469.458,1.389 469.458,2.405 469.458,74.382 469.458,76.675 470.604,76.675 492.947,76.675 
	492.947,1.389 470.016,1.389 "/>
<path fill="#FFFFFF" d="M48.452,39.409c0.578,0.523,1.054,1.119,1.538,1.707"/>
<path fill="#FFFFFF" d="M53.7,49.616c-0.317-1.734-0.876-3.337-1.566-4.847c-0.01-0.112-0.018-0.224-0.028-0.335
	c-0.569-1.203-1.276-2.302-2.115-3.318c-0.484-0.588-0.96-1.184-1.538-1.707c-0.057-0.056-0.093-0.121-0.149-0.168
	c-0.019-0.018-0.027-0.028-0.047-0.037c-0.009-0.01-0.028-0.018-0.038-0.027c-0.661-0.634-1.36-1.184-2.106-1.678
	c4.213-3.701,6.329-8.576,6.329-14.653c0-6.841-2.312-12.183-6.934-16.003c-4.326-3.645-9.955-5.453-16.937-5.453H0v75.287h27.283
	c8.082,0,14.42-1.818,19.053-5.453c4.12-3.235,6.506-7.766,7.307-13.488c0.261-1.342,0.43-2.731,0.43-4.167
	c0-0.027-0.01-0.056-0.01-0.084C54.063,52.151,53.923,50.865,53.7,49.616z M21.924,27.6v-0.01v-5.611v-2.75
	c2.824,0.065,4.716,0.317,5.631,0.755c1.593,0.736,2.413,2.339,2.413,4.81c0,2.395-0.82,3.98-2.413,4.716
	c-0.645,0.298-1.604,0.523-2.891,0.653h-0.01c-0.792,0.092-1.705,0.148-2.73,0.177V27.6z M21.924,57.996v-2.741v-6.441v-2.75h1.472
	c0.532,0,0.915,0.111,1.39,0.149c4.166,0.373,6.385,2.256,6.385,5.854c0,1.732-0.597,3.149-1.808,4.268
	c-1.193,1.11-2.695,1.66-4.494,1.66h-0.205h-0.671H21.924z"/>
<path fill="#C66799" d="M286.68,66.198c8.501-4.194,17.104-7.801,25.839-10.822c8.62-2.992,14.708-4.483,18.277-4.483
	c0.699,0,1.278,0.094,1.726,0.261l1.715,0.55c2.172,0.708,3.495,1.295,3.979,1.808c0.298,0.308,0.429,0.652,0.429,1.054
	c0,1.016-0.476,1.528-1.491,1.528c-0.438,0-0.792-0.139-1.053-0.4c-1.063-0.485-1.976-0.84-2.779-1.063l-1.863-0.615
	c-0.245-0.094-0.532-0.159-0.906-0.159c-2.749,0-8.165,1.39-16.208,4.148c-8.679,2.946-17.106,6.423-25.233,10.375
	c-9.666,4.688-17.03,9.238-22.138,13.646c-4.054,3.496-6.095,6.441-6.095,8.874c0,2.35,1.668,4.018,4.987,5.024
	c2.237,0.69,5.024,1.016,8.416,1.016c11.54,0,27.674-3.384,48.349-10.122c-2.815-4.466-5.742-7.504-8.789-9.088
	c-2.928,0-4.195,0-3.748,0c-1.809-0.094-2.862-0.504-3.169-1.23c-0.26-0.634-0.148-1.184,0.355-1.697
	c0.877-0.895,2.013-1.332,3.467-1.332c1.173,0,2.581,0.39,4.194,1.201c5.49-0.056,9.35-0.103,11.521-0.103
	c7.457,0,12.694,0.233,15.724,0.7c2.88,0.446,4.578,1.23,5.081,2.367c0.112,0.271,0.167,0.559,0.167,0.876
	c0,0.653-0.297,1.286-0.857,1.854c-1.594,1.547-8.006,4.251-19.303,8.1c0.811,1.585,1.668,3.579,2.618,6.059
	c1.1,2.983,1.669,5.034,1.669,6.134c0,0.811-0.392,1.296-1.165,1.473c-1.007,0.214-1.622-0.159-1.865-1.166
	c-0.792-3.812-2.227-7.633-4.269-11.483c-21.224,6.981-37.964,10.468-50.223,10.468c-3.653,0-6.692-0.373-9.068-1.1
	c-4.773-1.455-7.15-4.083-7.15-7.951c0-3.374,2.377-7.093,7.15-11.176C269.902,75.445,277.135,70.934,286.68,66.198z
	 M319.221,77.729c2.498,2.181,4.697,4.847,6.589,8.034c9.153-3.075,15.081-5.397,17.831-6.971
	C341.087,77.877,332.95,77.533,319.221,77.729z"/>
<path fill="#C66799" d="M344.741,93.118c0.308,1.295,0.458,2.302,0.458,3.01c0,1.38-0.486,2.07-1.474,2.07
	c-1.1,0-1.65-0.988-1.65-2.974c0-0.903,0.112-1.668,0.318-2.32c-0.616-2.089-1.213-3.477-1.828-4.242
	c-0.205-0.214-0.289-0.504-0.289-0.783c0-0.755,0.354-1.128,1.1-1.128c0.699,0,1.52,1.165,2.461,3.477
	c2.163-2.573,5.573-4.38,10.282-5.388c0.373-0.064,0.68,0,0.968,0.196c0.262,0.224,0.392,0.513,0.392,0.857
	c0,0.569-0.289,0.942-0.857,1.128c-2.49,0.652-4.354,1.332-5.631,1.994C346.895,90.098,345.496,91.458,344.741,93.118z"/>
<path fill="#C66799" d="M369.657,96.436c-3.207,0-5.351-0.14-6.45-0.4c-2.472-0.541-4.056-1.79-4.802-3.748
	c-0.148-0.428-0.242-0.885-0.242-1.389c0-1.724,0.765-3.374,2.312-4.959c1.537-1.603,3.104-2.395,4.688-2.395
	c1.138,0,2.042,0.438,2.722,1.314c0.672,0.904,0.988,1.938,0.988,3.104c0,2.963-2.395,4.595-7.233,4.884
	c1.23,0.858,3.916,1.277,8.018,1.277c0.727,0,1.099,0.373,1.099,1.146C370.756,96.035,370.384,96.436,369.657,96.436z
	 M365.163,85.848c-1.015,0-2.031,0.577-3.019,1.696c-1.007,1.119-1.557,2.2-1.668,3.235c1.212-0.206,2.414-0.42,3.626-0.625
	c1.658-0.391,2.46-1.119,2.46-2.19C366.562,86.555,366.105,85.848,365.163,85.848z"/>
<path fill="#C66799" d="M384.654,96.436c-3.196,0-5.351-0.14-6.451-0.4c-2.46-0.541-4.044-1.79-4.79-3.748
	c-0.15-0.428-0.243-0.885-0.243-1.389c0-1.724,0.765-3.374,2.312-4.959c1.529-1.603,3.094-2.395,4.679-2.395
	c1.146,0,2.041,0.438,2.731,1.314c0.662,0.904,0.988,1.938,0.988,3.104c0,2.963-2.406,4.595-7.243,4.884
	c1.239,0.858,3.924,1.277,8.016,1.277c0.719,0,1.091,0.373,1.091,1.146C385.745,96.035,385.373,96.436,384.654,96.436z
	 M380.162,85.848c-1.017,0-2.024,0.577-3.012,1.696c-1.015,1.119-1.557,2.2-1.667,3.235c1.202-0.206,2.414-0.42,3.625-0.625
	c1.64-0.391,2.471-1.119,2.471-2.19C381.579,86.555,381.102,85.848,380.162,85.848z"/>
<path fill="#C66799" d="M398.645,96.52c-1.017,0-3.216-0.392-6.608-1.184c0.205,1.473,0.317,2.675,0.317,3.607
	c0,2.191-0.485,3.271-1.472,3.271c-0.662,0-1.082-0.279-1.259-0.857c-0.065-0.261-0.083-0.792-0.083-1.603c0-0.242,0-1.165,0-2.769
	c0.018-1.101,0-2.022-0.048-2.777c-0.615-0.504-0.922-1.119-0.922-1.865c0-0.457,0.176-0.932,0.503-1.418
	c-0.828-5.489-2.526-14.67-5.08-27.533c-0.373-1.744-0.765-3.505-1.175-5.239c-0.503-2.293-0.746-4.027-0.746-5.192
	c0-0.821,0.373-1.212,1.156-1.212c0.681,0,1.072,0.392,1.21,1.166c0.299,1.938,0.915,5.284,1.865,10.011
	c1.166,5.845,2.815,14.633,4.932,26.351c3.298-1.715,5.08-2.572,5.34-2.572c0.774,0,1.167,0.4,1.167,1.174
	c0,0.569-0.859,1.268-2.574,2.153c-1.211,0.625-2.405,1.184-3.587,1.752l0.158,0.904c0.354,0.103,0.876,0.242,1.623,0.429
	c1.173,0.195,2.33,0.401,3.485,0.644c1.687,0.363,2.656,0.671,2.853,0.894c0.195,0.215,0.307,0.438,0.307,0.681
	c0,0.29-0.148,0.569-0.437,0.811C399.278,96.408,398.972,96.52,398.645,96.52z"/>
<path fill="#C66799" d="M420.559,87.451c0.027,0.857-0.4,1.286-1.258,1.286l-3.179,0.037c-3.206,0-5.005,0-5.443,0
	c0.308,5.062,0.308,8.679,0,10.822c-0.112,0.84-0.596,1.212-1.455,1.127c-0.856-0.157-1.202-0.642-1.118-1.471
	c0.309-2.005,0.309-5.5,0-10.478c-4.623,0-8.893-0.177-12.788-0.503c-2.256-0.205-3.393-0.335-3.43-0.354
	c-0.876-0.373-1.427-0.922-1.669-1.668c-0.093-0.326-0.028-0.597,0.214-0.792c0.224-0.195,0.501-0.308,0.802-0.308
	c0.559,0,0.896,0.046,1.006,0.112c0.634,0.345,3.037,0.633,7.196,0.792c2.219,0.066,5.043,0.13,8.474,0.15
	c-0.216-2.862-0.598-7.168-1.176-12.938c-0.727-7.83-1.1-12.732-1.1-14.708c0-1.352,0.111-2.275,0.354-2.788
	c0.337-0.653,0.876-0.848,1.603-0.541c0.757,0.326,0.999,0.895,0.71,1.724c-0.066,0.234-0.084,0.699-0.084,1.408
	c0,1.901,0.373,6.795,1.101,14.643c0.568,5.919,0.968,10.319,1.21,13.2c1.027,0,2.891-0.02,5.594-0.039h3.179
	C420.139,86.164,420.559,86.593,420.559,87.451z"/>
<path fill="#C66799" d="M415.582,90.387c0-1.79,0.922-3.636,2.824-5.565c1.865-1.938,3.711-2.879,5.489-2.879
	c1.437,0,3.301,0.894,5.594,2.703c2.423,1.91,3.636,3.607,3.636,5.08c0,1.817-0.971,3.607-2.908,5.341
	c-1.938,1.743-3.831,2.618-5.677,2.618c-1.809,0-3.711-0.745-5.741-2.264C416.654,93.835,415.582,92.158,415.582,90.387z
	 M424.092,84.747c-1.398,0-2.815,0.774-4.176,2.313c-1.203,1.341-1.846,2.441-1.865,3.327c0,1.016,0.801,2.088,2.461,3.234
	c1.547,1.072,2.908,1.603,4.091,1.603c1.214,0,2.509-0.615,3.917-1.863c1.397-1.23,2.114-2.434,2.114-3.571
	c0-0.997-0.848-2.069-2.506-3.253C426.451,85.344,425.089,84.747,424.092,84.747z"/>
<path fill="#C66799" d="M458.44,97.098c-1.91,0-3.925-0.531-6.049-1.565c-1.81-1.008-3.608-2.042-5.434-3.086
	c-0.243,1.155-0.468,2.293-0.709,3.439c-0.456,1.361-1.25,2.07-2.35,2.07c-0.55,0-1.129-0.187-1.715-0.503
	c-3.504-1.874-5.238-5.537-5.238-10.961c0-0.97,0-1.565,0.047-1.808c0.167-0.7,0.568-1.054,1.229-1.054
	c0.652,0,1.062,0.373,1.185,1.118v1.744c0,4.418,1.48,7.401,4.409,8.976c0.242-1.119,0.484-2.293,0.698-3.477
	c0.438-1.499,1.101-2.264,2.005-2.264c0.568,0,2.189,0.811,4.855,2.433c2.676,1.64,5.024,2.451,7.038,2.451
	c1.938,0,2.907-0.419,2.907-1.249c0-1.128-0.857-2.788-2.554-4.912c-1.697-2.135-2.554-3.319-2.554-3.562
	c0-0.838,0.429-1.258,1.212-1.258c0.316,0,0.596,0.13,0.858,0.419c1.322,1.258,2.486,2.703,3.54,4.306
	c1.297,2.004,1.968,3.691,1.968,5.052C463.791,95.868,462,97.098,458.44,97.098z"/>
<path fill="#C66799" d="M492.434,99.558c-2.62,0-5.069-0.903-7.317-2.721c-1.267-1.016-2.805-2.703-4.587-5.052
	c-1.369-1.781-2.318-2.656-2.822-2.656c-2.275,0-4.213,3.43-5.826,10.318c-0.373,1.538-0.987,2.33-1.875,2.33
	c-0.875,0-1.313-0.838-1.313-2.479c0-1.501-0.177-3.412-0.549-5.676c-0.438-2.62-0.943-4.427-1.501-5.397
	c-0.225-0.308-0.299-0.643-0.299-0.959c0-0.952,0.438-1.417,1.361-1.417c1.21,0,2.256,2.442,3.159,7.298
	c1.873-4.549,4.176-6.833,6.898-6.833c1.313,0,2.833,1.082,4.595,3.207c2.414,2.983,3.775,4.604,4.129,4.893
	c1.492,1.213,3.542,1.977,6.144,2.331c0.876,0.13,1.295,0.597,1.295,1.408C493.925,99.074,493.442,99.558,492.434,99.558z"/>
</svg>
